<?xml version="1.0" encoding="utf-8"?>
<svg
	version="1.1"
	xmlns="http://www.w3.org/2000/svg"
	xmlns:xlink="http://www.w3.org/1999/xlink"
	x="0%" y="0%"
	width="100%" height="100%"
	viewBox="0 0 500.0 600.0"
	enable-background="new 0 0 500.0 600.0"
	xml:space="preserve">
<defs>
	<linearGradient id="fillGrad0" x1="50.010%" y1="-0.233%" x2="50.010%" y2="100.233%">
   		<stop offset="0.000%" style="stop-color:rgb(255,226,187);stop-opacity:1.000" />
		<stop offset="50.000%" style="stop-color:rgb(255,220,166);stop-opacity:1.000" />
		<stop offset="100.000%" style="stop-color:rgb(255,214,143);stop-opacity:1.000" />
	</linearGradient>

	<radialGradient id="fillGrad26" cx="88.060%" cy="69.559%" fx="88.060%" fy="69.559%" r="73.354%">
   		<stop offset="0.000%" style="stop-color:rgb(100,100,100);stop-opacity:1.000" />
		<stop offset="22.222%" style="stop-color:rgb(51,51,51);stop-opacity:1.000" />
		<stop offset="100.000%" style="stop-color:rgb(25,25,25);stop-opacity:1.000" />
	</radialGradient>

</defs>
	<path
		transform = "rotate(-0.00 249.11 325.08)"
		fill="url(#fillGrad0)"
		stroke="#000000"
		fill-opacity="1.0"
		stroke-opacity="1.000"
		fill-rule="nonzero"
		stroke-width="2.0"
		stroke-linejoin="miter"
		stroke-linecap="round"
		d="M56.67,54.75C53.78,58.49,50.89,62.23,46.00,70.50C41.11,78.77,34.20,91.57,30.00,100.50C25.80,109.43,24.29,114.50,20.00,126.00C15.71,137.50,8.63,155.45,5.90,208.07C3.17,260.69,4.81,347.99,11.00,406.43C17.19,464.88,27.93,494.47,51.76,521.76C75.58,549.06,112.47,574.05,168.94,586.35C225.41,598.64,301.47,598.22,352.37,586.35C403.26,574.47,429.01,551.13,449.17,526.37C469.33,501.62,483.89,475.46,489.93,415.66C495.97,355.86,493.48,262.44,489.93,208.07C486.39,153.70,481.79,138.39,477.19,123.08M477.00,123.50C453.50,93.84,467.50,116.34,446.00,69.00C416.00,31.50,388.00,18.00,367.50,11.34C368.83,13.59,369.00,15.00,368.50,17.00C326.00,6.00,304.00,4.50,278.00,1.50C281.00,4.50,281.00,6.00,280.55,7.87C246.00,5.50,234.00,4.50,202.00,4.50C206.80,9.00,206.80,10.50,207.00,12.00C178.00,12.00,140.00,12.00,116.67,17.25C119.50,18.84,123.33,20.25,123.33,23.25C97.50,29.34,73.50,36.84,50.00,53.25C54.00,53.40,56.00,54.00,56.67,54.75"/>
	<path
		fill="#FEFEFE"
		stroke="#000000"
		fill-opacity="1.000"
		stroke-opacity="1.000"
		fill-rule="nonzero"
		stroke-width="2.0"
		stroke-linejoin="miter"
		stroke-linecap="square"
		d="M246.62,107.60C269.75,108.03,288.16,127.13,287.73,150.27C287.30,173.40,268.19,191.80,245.06,191.37C221.93,190.94,203.52,171.84,203.96,148.71C204.39,125.57,223.49,107.17,246.62,107.60z"/>
	<path
		fill="#FFFFFF"
		stroke="#000000"
		fill-opacity="1.000"
		stroke-opacity="1.000"
		fill-rule="nonzero"
		stroke-width="2.0"
		stroke-linejoin="miter"
		stroke-linecap="square"
		d="M426.34,71.17C460.71,63.69,491.85,72.73,495.91,91.35C499.96,109.98,475.38,131.14,441.02,138.62C406.65,146.10,375.50,137.06,371.45,118.44C367.40,99.81,391.97,78.65,426.34,71.17z"/>
	<path
		fill="#000000"
		stroke="#000000"
		fill-opacity="1.000"
		stroke-opacity="1.000"
		fill-rule="nonzero"
		stroke-width="0.8152871"
		stroke-linejoin="miter"
		stroke-linecap="square"
		d="M245.25,136.83C252.52,136.97,258.30,142.97,258.17,150.25C258.03,157.52,252.03,163.30,244.75,163.17C237.48,163.03,231.70,157.03,231.83,149.75C231.97,142.48,237.97,136.70,245.25,136.83z"/>
	<path
		fill="#000000"
		stroke="#000000"
		fill-opacity="1.000"
		stroke-opacity="1.000"
		fill-rule="nonzero"
		stroke-width="0.8152871"
		stroke-linejoin="miter"
		stroke-linecap="square"
		d="M435.25,91.83C442.52,91.97,448.30,97.97,448.17,105.25C448.03,112.52,442.03,118.30,434.75,118.17C427.48,118.03,421.70,112.03,421.83,104.75C421.97,97.48,427.97,91.70,435.25,91.83z"/>
	<path
		transform = "rotate(-80.26 366.39 275.61)"
		fill="url(#fillGrad26)"
		stroke="#000000"
		fill-opacity="1.0"
		stroke-opacity="1.000"
		fill-rule="nonzero"
		stroke-width="2.0"
		stroke-linejoin="miter"
		stroke-linecap="square"
		d="M347.74,257.10C354.10,251.09,360.46,245.08,367.95,238.41C375.43,231.75,384.03,224.42,391.54,239.44C399.04,254.45,405.45,291.80,403.38,308.43C401.31,325.06,390.75,320.97,381.48,317.26C372.21,313.55,364.23,310.21,356.20,306.38C348.17,302.55,340.08,298.23,335.47,294.72C330.85,291.21,329.72,288.50,329.23,285.64C328.73,282.79,328.89,279.79,332.08,275.01C335.28,270.23,341.51,263.66,347.74,257.10z"/>
	<path
		fill="#000000"
		stroke="#000000"
		fill-opacity="0.000"
		stroke-opacity="1.000"
		fill-rule="nonzero"
		stroke-width="2.0"
		stroke-linejoin="miter"
		stroke-linecap="round"
		d="M370.00,313.94L370.00,392.40M425.00,392.40C425.00,433.94,370.00,433.94,370.00,392.40C370.00,433.94,315.00,433.94,315.00,392.40"/>
</svg>