<?xml version="1.0" encoding="utf-8"?>
<svg
	version="1.1"
	xmlns="http://www.w3.org/2000/svg"
	xmlns:xlink="http://www.w3.org/1999/xlink"
	x="0%" y="0%"
	width="100%" height="100%"
	viewBox="0 0 150.0 650.0"
	enable-background="new 0 0 150.0 650.0"
	xml:space="preserve">
	<path
		fill="#FFFFFF"
		stroke="#000000"
		fill-opacity="0.000"
		stroke-opacity="0.5"
		fill-rule="nonzero"
		stroke-width="1.5"
		stroke-linejoin="miter"
		stroke-linecap="square"
		d="M-12.10,409.40A58.28 58.28 89.72 1 1 -11.53,525.96"/>
	<path
		fill="#FFFFFF"
		stroke="#000000"
		fill-opacity="0.000"
		stroke-opacity="0.5"
		fill-rule="nonzero"
		stroke-width="1.5"
		stroke-linejoin="miter"
		stroke-linecap="square"
		d="M-15.69,403.80A65.76 70.81 89.72 1 1 -15.04,535.32"/>
	<path
		fill="#FFFFFF"
		stroke="#000000"
		fill-opacity="0.000"
		stroke-opacity="0.5"
		fill-rule="nonzero"
		stroke-width="1.5"
		stroke-linejoin="miter"
		stroke-linecap="square"
		d="M-19.26,396.40A79.25 85.34 89.72 1 1 -18.47,554.89M-19.48,432.77C-34.39,436.43,-44.23,448.55,-41.46,459.85C-38.68,471.15,-24.35,477.34,-9.44,473.68C5.47,470.02,15.31,457.89,12.53,446.60C9.76,435.30,-4.57,429.11,-19.48,432.77zM273.79,98.55C140.88,204.26,139.59,286.49,264.00,123.78M212.19,36.95C79.28,142.67,78.00,224.89,202.41,62.18M193.58,135.03C96.59,205.83,129.55,259.04,189.89,280.11M185.45,127.92C83.93,207.62,116.89,260.83,177.23,281.90M173.31,121.74C72.27,209.58,105.23,262.79,167.03,287.43M286.91,-33.23C-116.29,257.12,211.74,286.60,148.57,322.75C-1.60,370.73,183.54,507.34,-7.26,602.42M4.63,659.30C46.32,627.59,99.44,545.80,-8.41,649.90M14.80,658.39C53.41,632.25,123.75,517.75,-7.42,640.62M118.26,677.10C150.09,610.21,130.03,624.29,112.94,658.41M3.89,677.39C59.04,640.06,159.49,476.54,-16.64,642.26M282.75,41.15C-96.06,260.73,231.97,290.21,168.80,326.36C-3.47,359.98,203.77,510.95,-16.56,616.02M-9.10,583.61C5.62,613.75,185.86,435.41,-17.04,385.31M-12.94,428.26C-26.93,431.70,-35.48,445.82,-32.05,459.81C-28.61,473.80,-14.49,482.35,-0.50,478.92C13.49,475.49,22.04,461.36,18.61,447.37C15.18,433.38,1.05,424.83,-12.94,428.26zM-20.00,421.84C-40.09,426.77,-52.38,447.06,-47.44,467.14C-42.51,487.23,-22.23,499.52,-2.14,494.59C17.94,489.65,30.23,469.37,25.30,449.29C20.37,429.20,0.09,416.91,-20.00,421.84zM-17.22,418.78C-40.10,424.40,-54.10,447.50,-48.48,470.39C-42.87,493.27,-19.76,507.27,3.13,501.65C26.01,496.04,40.01,472.93,34.39,450.04C28.77,427.16,5.67,413.16,-17.22,418.78z"/>
	<path
		fill="#FFFFFF"
		stroke="#000000"
		fill-opacity="0.000"
		stroke-opacity="0.5"
		fill-rule="nonzero"
		stroke-width="1.5"
		stroke-linejoin="miter"
		stroke-linecap="square"
		d="M165.43,498.31C128.01,440.90,84.52,352.74,161.36,348.46"/>
	<path
		fill="#FFFFFF"
		stroke="#000000"
		fill-opacity="0.000"
		stroke-opacity="0.5"
		fill-rule="nonzero"
		stroke-width="1.5"
		stroke-linejoin="miter"
		stroke-linecap="square"
		d="M159.63,602.32C158.29,581.15,156.95,559.98,148.49,544.78C140.03,529.58,124.45,520.36,117.08,492.09C109.71,463.83,110.55,416.52,112.65,406.09C114.75,395.66,118.12,422.11,128.63,447.19C139.15,472.26,156.81,495.95,174.48,519.64M140.55,668.21C152.42,535.78,165.18,572.41,180.07,620.74M170.29,356.64C125.80,358.78,126.21,394.75,169.46,470.78M158.02,354.39C115.88,360.90,116.29,396.87,159.55,472.90"/>
	<path
		fill="#FFFFFF"
		stroke="#000000"
		fill-opacity="0.000"
		stroke-opacity="0.5"
		fill-rule="nonzero"
		stroke-width="1.5"
		stroke-linejoin="miter"
		stroke-linecap="square"
		d="M138.87,681.57C135.87,669.18,132.88,656.80,137.47,637.04C142.06,617.27,154.22,590.13,151.10,568.15C147.98,546.17,129.58,529.35,120.53,514.19C111.48,499.02,111.78,485.50,111.12,497.56C110.47,509.62,108.85,547.26,98.09,578.58C87.33,609.90,67.42,634.90,47.50,659.89"/>
	<path
		fill="#FFFFFF"
		stroke="#000000"
		fill-opacity="0.000"
		stroke-opacity="0.5"
		fill-rule="nonzero"
		stroke-width="1.5"
		stroke-linejoin="miter"
		stroke-linecap="square"
		d="M115.23,693.09C104.30,687.94,93.37,682.78,102.83,664.86C112.29,646.94,142.13,616.25,146.68,588.59C151.23,560.94,130.49,536.32,121.19,522.46C111.89,508.61,114.02,505.51,113.16,521.41C112.30,537.32,108.46,572.23,96.34,601.55C84.23,630.86,63.84,654.58,43.46,678.30"/>
	<path
		fill="#FFFFFF"
		stroke="#000000"
		fill-opacity="0.000"
		stroke-opacity="0.5"
		fill-rule="nonzero"
		stroke-width="1.5"
		stroke-linejoin="miter"
		stroke-linecap="square"
		d="M72.03,657.78C85.02,638.09,98.00,618.41,105.70,601.04C113.40,583.68,115.81,568.63,116.62,555.95C117.43,543.27,116.64,532.97,119.68,533.90C122.72,534.83,129.58,547.00,134.95,558.13C140.31,569.27,144.17,579.36,137.16,596.62C130.14,613.89,112.24,638.33,94.35,662.78"/>
	<path
		fill="#FFFFFF"
		stroke="#000000"
		fill-opacity="0.000"
		stroke-opacity="0.5"
		fill-rule="nonzero"
		stroke-width="1.5"
		stroke-linejoin="miter"
		stroke-linecap="square"
		d="M36.27,664.14C54.86,641.40,73.46,618.67,84.35,592.92C95.23,567.17,98.42,538.41,100.40,516.01C102.37,493.60,103.15,477.55,102.48,450.66C101.81,423.77,99.70,386.05,112.12,364.78C124.55,343.51,151.50,338.70,178.46,333.89"/>
	<path
		fill="#FFFFFF"
		stroke="#000000"
		fill-opacity="0.000"
		stroke-opacity="0.5"
		fill-rule="nonzero"
		stroke-width="1.5"
		stroke-linejoin="miter"
		stroke-linecap="square"
		d="M199.01,593.64C194.54,579.91,190.06,566.18,177.94,553.17C165.82,540.15,146.06,527.86,133.80,505.73C121.54,483.60,116.77,451.63,119.31,449.53C121.85,447.43,131.68,475.19,145.38,492.40C159.08,509.61,176.64,516.26,194.20,522.91"/>
	<path
		fill="#FFFFFF"
		stroke="#000000"
		fill-opacity="0.000"
		stroke-opacity="0.5"
		fill-rule="nonzero"
		stroke-width="1.5"
		stroke-linejoin="miter"
		stroke-linecap="square"
		d="M84.65,675.53C88.93,666.13,93.20,656.73,103.09,642.40C112.98,628.06,128.48,608.79,131.74,589.49C135.00,570.18,126.02,550.83,123.48,550.89C120.94,550.94,124.84,570.41,116.77,594.38C108.69,618.36,88.65,646.85,68.61,675.35"/>
	<path
		fill="#FFFFFF"
		stroke="#000000"
		fill-opacity="0.000"
		stroke-opacity="0.5"
		fill-rule="nonzero"
		stroke-width="1.5"
		stroke-linejoin="miter"
		stroke-linecap="square"
		d="M176.70,29.42C143.24,68.36,109.79,107.30,90.04,139.69C70.29,172.08,64.24,197.92,67.79,220.17C71.33,242.42,84.47,261.08,100.63,274.77C116.80,288.45,136.00,297.15,129.77,309.65C123.53,322.15,91.85,338.45,80.35,362.28C68.85,386.12,77.53,417.50,74.55,422.03C71.57,426.56,56.93,404.24,29.77,390.38C2.61,376.51,-37.06,371.08,-76.73,365.66"/>
	<path
		fill="#FFFFFF"
		stroke="#000000"
		fill-opacity="0.000"
		stroke-opacity="0.5"
		fill-rule="nonzero"
		stroke-width="1.5"
		stroke-linejoin="miter"
		stroke-linecap="square"
		d="M113.89,-17.65C108.30,26.09,102.72,69.83,92.07,101.39C81.42,132.95,65.70,152.33,59.37,176.60C53.04,200.88,56.08,230.03,65.94,252.78C75.80,275.52,92.47,291.85,92.07,309.65C91.67,327.45,74.20,346.72,63.48,358.83C52.75,370.93,48.78,375.87,29.82,373.95C10.87,372.03,-23.07,363.26,-55.03,354.06C-87.00,344.87,-116.99,335.24,-146.99,325.62M152.90,-55.90C143.77,-21.79,134.65,12.32,131.75,30.23C128.86,48.14,132.20,49.85,142.83,35.73C153.47,21.60,171.40,-8.36,190.00,-26.28C208.60,-44.20,227.86,-50.08,247.12,-55.96M140.77,-30.26C131.49,2.78,122.22,35.81,120.05,52.73C117.88,69.65,122.82,70.46,133.34,57.12C143.87,43.78,159.99,16.30,177.86,-0.63C195.73,-17.56,215.36,-23.94,234.98,-30.31M129.29,-29.76C120.70,12.57,112.11,54.90,110.46,74.43C108.82,93.95,114.12,90.67,123.80,78.68C133.49,66.69,147.56,45.99,164.63,30.83C181.71,15.67,201.80,6.06,221.89,-3.56"/>
	<path
		fill="#FFFFFF"
		stroke="#000000"
		fill-opacity="0.000"
		stroke-opacity="0.5"
		fill-rule="nonzero"
		stroke-width="1.5"
		stroke-linejoin="miter"
		stroke-linecap="square"
		d="M98.55,280.61C108.28,287.20,118.00,293.80,120.81,299.13C123.62,304.46,119.52,308.53,114.18,314.15C108.84,319.76,102.28,326.93,100.12,325.23C97.96,323.53,100.19,312.97,100.20,306.62C100.20,300.28,97.97,298.15,94.67,292.82C91.37,287.50,87.00,278.96,87.47,276.39C87.94,273.82,93.24,277.22,98.55,280.61z"/>
	<path
		fill="#FFFFFF"
		stroke="#000000"
		fill-opacity="0.000"
		stroke-opacity="0.5"
		fill-rule="nonzero"
		stroke-width="1.5"
		stroke-linejoin="miter"
		stroke-linecap="square"
		d="M107.81,291.50C111.06,294.35,114.31,297.21,115.95,299.79C117.59,302.37,117.61,304.67,115.58,307.59C113.55,310.52,109.46,314.06,107.17,313.71C104.88,313.37,104.38,309.14,103.74,305.66C103.09,302.19,102.30,299.46,101.16,296.34C100.01,293.22,98.52,289.69,99.57,288.82C100.62,287.94,104.22,289.72,107.81,291.50z"/>
	<path
		fill="#FFFFFF"
		stroke="#000000"
		fill-opacity="0.000"
		stroke-opacity="0.5"
		fill-rule="nonzero"
		stroke-width="1.5"
		stroke-linejoin="miter"
		stroke-linecap="square"
		d="M49.42,396.90C56.60,401.23,63.79,405.57,66.64,405.50C69.49,405.44,67.99,400.99,69.46,390.30C70.94,379.61,75.38,362.69,74.59,359.24C73.80,355.79,67.78,365.82,62.61,372.24C57.45,378.67,53.15,381.50,44.90,381.36C36.65,381.21,24.46,378.10,24.55,380.19C24.65,382.29,37.03,389.60,49.42,396.90z"/>
	<path
		fill="#FFFFFF"
		stroke="#000000"
		fill-opacity="0.000"
		stroke-opacity="0.5"
		fill-rule="nonzero"
		stroke-width="1.5"
		stroke-linejoin="miter"
		stroke-linecap="square"
		d="M55.21,395.53C57.85,395.97,60.49,396.41,62.44,395.51C64.39,394.62,65.64,392.38,66.98,388.01C68.32,383.65,69.76,377.16,68.67,375.89C67.57,374.63,63.96,378.59,61.47,380.82C58.98,383.06,57.61,383.57,53.96,384.49C50.31,385.41,44.37,386.75,44.20,388.65C44.03,390.56,49.62,393.04,55.21,395.53z"/>
	<path
		fill="#FFFFFF"
		stroke="#000000"
		fill-opacity="0.000"
		stroke-opacity="0.5"
		fill-rule="nonzero"
		stroke-width="1.5"
		stroke-linejoin="miter"
		stroke-linecap="square"
		d="M99.24,-12.19C113.78,83.26,-25.79,142.09,-29.33,245.88"/>
	<path
		fill="#FFFFFF"
		stroke="#000000"
		fill-opacity="0.000"
		stroke-opacity="0.5"
		fill-rule="nonzero"
		stroke-width="1.5"
		stroke-linejoin="miter"
		stroke-linecap="square"
		d="M83.45,-17.28C105.45,71.28,-37.37,130.58,-49.14,212.73"/>
	<path
		fill="#FFFFFF"
		stroke="#000000"
		fill-opacity="0.000"
		stroke-opacity="0.5"
		fill-rule="nonzero"
		stroke-width="1.5"
		stroke-linejoin="miter"
		stroke-linecap="square"
		d="M69.94,-14.79C96.25,55.24,-39.97,114.97,-58.48,189.46"/>
	<path
		fill="#FFFFFF"
		stroke="#000000"
		fill-opacity="0.000"
		stroke-opacity="0.5"
		fill-rule="nonzero"
		stroke-width="1.5"
		stroke-linejoin="miter"
		stroke-linecap="square"
		d="M54.83,-18.84C81.14,51.19,-45.21,100.86,-62.72,158.99"/>
	<path
		fill="#FFFFFF"
		stroke="#000000"
		fill-opacity="0.000"
		stroke-opacity="0.5"
		fill-rule="nonzero"
		stroke-width="1.5"
		stroke-linejoin="miter"
		stroke-linecap="square"
		d="M39.47,-12.00C63.15,38.68,-54.65,94.91,-68.49,129.94M78.17,296.43C77.67,294.49,77.17,292.56,74.38,292.11C71.58,291.65,66.49,292.68,65.04,297.15C63.58,301.61,65.76,309.52,60.94,317.57C56.13,325.62,44.31,333.82,42.05,339.99C39.78,346.17,47.07,350.31,54.29,347.94C61.51,345.56,68.67,336.66,73.15,328.90C77.63,321.14,79.42,314.52,79.81,309.30C80.20,304.08,79.19,300.26,78.17,296.43zM76.71,282.74C72.80,277.55,68.89,272.36,65.12,272.11C61.34,271.87,57.70,276.57,57.69,286.17C57.69,295.76,61.32,310.26,54.88,319.12C48.45,327.98,31.94,331.21,27.59,340.79C23.23,350.38,31.03,366.32,42.27,364.98C53.52,363.65,68.22,345.03,76.84,331.62C85.47,318.21,88.03,310.01,87.00,302.73C85.96,295.46,81.34,289.10,76.71,282.74zM-38.14,289.43C-31.32,293.33,-24.49,297.23,-20.09,298.57C-15.69,299.92,-13.72,298.72,-7.00,298.89C-0.29,299.06,11.15,300.61,14.89,295.16C18.63,289.72,14.66,277.29,12.67,265.25C10.68,253.21,10.66,241.56,8.51,237.72C6.36,233.89,2.08,237.89,-0.81,240.61C-3.71,243.33,-5.22,244.78,-10.12,248.79C-15.02,252.81,-23.31,259.39,-31.60,265.98M-46.30,298.03C-37.45,302.36,-28.60,306.69,-20.71,308.31C-12.81,309.93,-5.88,308.85,2.86,308.29C11.60,307.73,22.13,307.69,24.88,300.07C27.63,292.46,22.60,277.28,20.92,260.63C19.25,243.99,20.95,225.89,17.75,220.49C14.56,215.09,6.48,222.40,1.57,227.85C-3.34,233.30,-5.07,236.90,-10.26,241.78C-15.46,246.65,-24.12,252.81,-32.78,258.97M-51.70,305.31C-43.90,308.83,-36.10,312.35,-23.38,315.98C-10.65,319.61,7.00,323.35,18.86,320.62C30.71,317.90,36.77,308.71,38.27,295.52C39.76,282.34,36.70,265.16,34.66,252.01C32.62,238.87,31.59,229.77,30.86,216.06C30.12,202.36,29.66,184.05,21.75,186.70C13.84,189.36,-1.53,212.97,-13.47,230.64C-25.41,248.31,-33.92,260.03,-42.43,271.75M-28.96,333.79C-7.82,335.55,13.32,337.31,27.66,331.95C41.99,326.58,49.53,314.08,51.74,304.97C53.94,295.85,50.83,290.13,47.85,266.80C44.87,243.47,42.03,202.53,47.85,173.86C53.67,145.18,68.15,128.77,77.33,111.99C86.51,95.21,90.39,78.07,79.90,86.51C69.41,94.96,44.56,129.00,26.99,153.22C9.43,177.45,-0.85,191.85,-11.12,206.26M-22.83,54.02C12.12,42.54,36.40,7.62,27.56,-22.14"/>
</svg>