<?xml version="1.0" encoding="utf-8"?>
<svg
	version="1.1"
	xmlns="http://www.w3.org/2000/svg"
	xmlns:xlink="http://www.w3.org/1999/xlink"
	x="0%" y="0%"
	width="100%" height="100%"
	viewBox="0 0 150.0 650.0"
	enable-background="new 0 0 150.0 650.0"
	xml:space="preserve">
	<path
		fill="#FFFFFF"
		stroke="#000000"
		fill-opacity="0.000"
		stroke-opacity="0.5"
		fill-rule="nonzero"
		stroke-width="1.5"
		stroke-linejoin="miter"
		stroke-linecap="square"
		d="M152.03,227.74A58.28 58.28 89.72 1 1 151.45,111.18"/>
	<path
		fill="#FFFFFF"
		stroke="#000000"
		fill-opacity="0.000"
		stroke-opacity="0.5"
		fill-rule="nonzero"
		stroke-width="1.5"
		stroke-linejoin="miter"
		stroke-linecap="square"
		d="M155.61,233.34A65.76 70.81 89.72 1 1 154.96,101.82"/>
	<path
		fill="#FFFFFF"
		stroke="#000000"
		fill-opacity="0.000"
		stroke-opacity="0.5"
		fill-rule="nonzero"
		stroke-width="1.5"
		stroke-linejoin="miter"
		stroke-linecap="square"
		d="M159.18,240.74A79.25 85.34 89.72 1 1 158.39,82.24M149.36,163.46C134.45,167.12,124.61,179.24,127.39,190.54C130.16,201.84,144.49,208.03,159.40,204.37C174.31,200.71,184.15,188.58,181.38,177.29C178.60,165.99,164.27,159.80,149.36,163.46zM-133.87,538.59C-0.96,432.88,0.33,350.65,-124.08,513.36M-72.27,600.19C60.64,494.47,61.93,412.25,-62.48,574.96M-53.66,502.11C43.33,431.31,10.37,378.09,-49.97,357.03M-45.53,509.21C55.99,429.52,23.03,376.30,-37.31,355.24M-33.39,515.40C67.65,427.56,34.69,374.34,-27.11,349.71M-146.99,670.37C256.21,380.02,-71.82,350.54,-8.64,314.39C141.52,266.40,-43.62,129.80,147.18,34.72M135.29,-22.16C93.60,9.55,40.48,91.34,148.33,-12.77M125.12,-21.25C86.51,4.89,16.17,119.39,147.34,-3.49M21.66,-39.97C-10.17,26.93,9.89,12.85,26.98,-21.27M136.03,-40.25C80.88,-2.92,-19.57,160.60,156.56,-5.13M-142.83,595.99C235.98,376.41,-92.05,346.93,-28.88,310.78C143.39,277.16,-63.85,126.19,156.48,21.12M149.02,53.53C134.30,23.38,-45.94,201.72,156.96,251.83M140.42,158.22C126.43,161.65,117.88,175.78,121.31,189.77C124.75,203.75,138.87,212.31,152.86,208.88C166.85,205.44,175.40,191.32,171.97,177.33C168.53,163.34,154.41,154.78,140.42,158.22zM142.06,142.55C121.98,147.48,109.69,167.77,114.62,187.85C119.55,207.94,139.84,220.23,159.92,215.29C180.01,210.36,192.30,190.08,187.36,169.99C182.43,149.91,162.15,137.62,142.06,142.55zM136.80,135.48C113.91,141.10,99.91,164.21,105.53,187.09C111.15,209.98,134.25,223.98,157.14,218.36C180.03,212.74,194.02,189.63,188.41,166.75C182.79,143.86,159.68,129.87,136.80,135.48z"/>
	<path
		fill="#FFFFFF"
		stroke="#000000"
		fill-opacity="0.000"
		stroke-opacity="0.5"
		fill-rule="nonzero"
		stroke-width="1.5"
		stroke-linejoin="miter"
		stroke-linecap="square"
		d="M-25.51,138.83C11.91,196.24,55.40,284.40,-21.44,288.68"/>
	<path
		fill="#FFFFFF"
		stroke="#000000"
		fill-opacity="0.000"
		stroke-opacity="0.5"
		fill-rule="nonzero"
		stroke-width="1.5"
		stroke-linejoin="miter"
		stroke-linecap="square"
		d="M-19.71,34.82C-18.37,55.99,-17.03,77.16,-8.57,92.36C-0.11,107.56,15.47,116.78,22.84,145.04C30.21,173.31,29.37,220.62,27.27,231.05C25.17,241.47,21.80,215.02,11.29,189.95C0.77,164.88,-16.89,141.19,-34.56,117.50M-0.63,-31.07C-12.50,101.35,-25.26,64.73,-40.15,16.40M-30.37,280.50C14.13,278.35,13.71,242.39,-29.54,166.36M-18.09,282.75C24.04,276.23,23.63,240.27,-19.63,164.24"/>
	<path
		fill="#FFFFFF"
		stroke="#000000"
		fill-opacity="0.000"
		stroke-opacity="0.5"
		fill-rule="nonzero"
		stroke-width="1.5"
		stroke-linejoin="miter"
		stroke-linecap="square"
		d="M1.06,-44.43C4.05,-32.05,7.04,-19.66,2.45,0.10C-2.13,19.87,-14.30,47.01,-11.18,68.99C-8.06,90.97,10.34,107.78,19.39,122.95C28.44,138.12,28.14,151.63,28.80,139.57C29.45,127.51,31.07,89.87,41.83,58.56C52.59,27.24,72.50,2.24,92.42,-22.75"/>
	<path
		fill="#FFFFFF"
		stroke="#000000"
		fill-opacity="0.000"
		stroke-opacity="0.5"
		fill-rule="nonzero"
		stroke-width="1.5"
		stroke-linejoin="miter"
		stroke-linecap="square"
		d="M24.69,-55.96C35.62,-50.80,46.55,-45.65,37.09,-27.72C27.63,-9.80,-2.21,20.89,-6.76,48.54C-11.31,76.20,9.43,100.82,18.73,114.67C28.03,128.53,25.90,131.63,26.76,115.73C27.62,99.82,31.46,64.91,43.58,35.59C55.69,6.27,76.08,-17.45,96.46,-41.16"/>
	<path
		fill="#FFFFFF"
		stroke="#000000"
		fill-opacity="0.000"
		stroke-opacity="0.5"
		fill-rule="nonzero"
		stroke-width="1.5"
		stroke-linejoin="miter"
		stroke-linecap="square"
		d="M67.89,-20.64C54.90,-0.96,41.92,18.73,34.22,36.10C26.52,53.46,24.11,68.51,23.30,81.19C22.49,93.86,23.28,104.17,20.24,103.24C17.20,102.31,10.34,90.13,4.97,79.00C-0.39,67.87,-4.25,57.78,2.76,40.52C9.78,23.25,27.68,-1.20,45.57,-25.64"/>
	<path
		fill="#FFFFFF"
		stroke="#000000"
		fill-opacity="0.000"
		stroke-opacity="0.5"
		fill-rule="nonzero"
		stroke-width="1.5"
		stroke-linejoin="miter"
		stroke-linecap="square"
		d="M103.65,-27.00C85.06,-4.26,66.46,18.47,55.58,44.22C44.69,69.96,41.50,98.73,39.52,121.13C37.55,143.54,36.77,159.59,37.44,186.48C38.11,213.36,40.22,251.09,27.80,272.36C15.37,293.63,-11.58,298.44,-38.54,303.25"/>
	<path
		fill="#FFFFFF"
		stroke="#000000"
		fill-opacity="0.000"
		stroke-opacity="0.5"
		fill-rule="nonzero"
		stroke-width="1.5"
		stroke-linejoin="miter"
		stroke-linecap="square"
		d="M-59.09,43.50C-54.62,57.23,-50.14,70.96,-38.02,83.97C-25.90,96.98,-6.14,109.28,6.12,131.41C18.38,153.54,23.15,185.50,20.61,187.61C18.07,189.71,8.24,161.95,-5.46,144.74C-19.16,127.53,-36.72,120.88,-54.27,114.22"/>
	<path
		fill="#FFFFFF"
		stroke="#000000"
		fill-opacity="0.000"
		stroke-opacity="0.5"
		fill-rule="nonzero"
		stroke-width="1.5"
		stroke-linejoin="miter"
		stroke-linecap="square"
		d="M55.27,-38.39C50.99,-28.99,46.72,-19.59,36.83,-5.26C26.94,9.08,11.44,28.34,8.18,47.65C4.92,66.96,13.90,86.31,16.44,86.25C18.98,86.19,15.08,66.73,23.15,42.75C31.23,18.78,51.27,-9.72,71.31,-38.21"/>
	<path
		fill="#FFFFFF"
		stroke="#000000"
		fill-opacity="0.000"
		stroke-opacity="0.5"
		fill-rule="nonzero"
		stroke-width="1.5"
		stroke-linejoin="miter"
		stroke-linecap="square"
		d="M-36.78,607.72C-3.32,568.78,30.14,529.84,49.89,497.45C69.64,465.05,75.68,439.22,72.13,416.96C68.59,394.71,55.46,376.05,39.29,362.37C23.12,348.69,3.92,339.99,10.16,327.49C16.39,314.99,48.07,298.69,59.57,274.85C71.07,251.02,62.39,219.64,65.37,215.11C68.35,210.58,82.99,232.89,110.15,246.76C137.31,260.63,176.98,266.06,216.65,271.48"/>
	<path
		fill="#FFFFFF"
		stroke="#000000"
		fill-opacity="0.000"
		stroke-opacity="0.5"
		fill-rule="nonzero"
		stroke-width="1.5"
		stroke-linejoin="miter"
		stroke-linecap="square"
		d="M26.03,654.78C31.62,611.05,37.20,567.31,47.85,535.75C58.50,504.19,74.22,484.80,80.55,460.53C86.89,436.26,83.84,407.10,73.98,384.36C64.13,361.62,47.45,345.29,47.85,327.49C48.25,309.69,65.72,290.42,76.44,278.31C87.17,266.21,91.14,261.27,110.10,263.19C129.06,265.11,162.99,273.88,194.95,283.08C226.92,292.27,256.91,301.89,286.91,311.52M-12.98,693.04C-3.85,658.93,5.28,624.81,8.17,606.90C11.06,588.99,7.72,587.29,-2.91,601.41C-13.55,615.54,-31.48,645.50,-50.08,663.41C-68.68,681.33,-87.94,687.21,-107.20,693.09M-0.84,667.40C8.43,634.36,17.70,601.33,19.87,584.41C22.04,567.49,17.10,566.68,6.58,580.02C-3.95,593.36,-20.07,620.84,-37.94,637.77C-55.81,654.70,-75.44,661.07,-95.06,667.45M10.63,666.90C19.22,624.56,27.82,582.23,29.46,562.71C31.10,543.19,25.80,546.47,16.12,558.46C6.43,570.45,-7.63,591.15,-24.71,606.31C-41.79,621.46,-61.88,631.08,-81.97,640.70"/>
	<path
		fill="#FFFFFF"
		stroke="#000000"
		fill-opacity="0.000"
		stroke-opacity="0.5"
		fill-rule="nonzero"
		stroke-width="1.5"
		stroke-linejoin="miter"
		stroke-linecap="square"
		d="M41.37,356.53C31.65,349.93,21.92,343.34,19.11,338.01C16.30,332.68,20.41,328.61,25.74,322.99C31.08,317.38,37.64,310.21,39.80,311.91C41.96,313.61,39.73,324.17,39.72,330.52C39.72,336.86,41.95,338.99,45.25,344.31C48.55,349.64,52.92,358.17,52.45,360.74C51.98,363.31,46.68,359.92,41.37,356.53z"/>
	<path
		fill="#FFFFFF"
		stroke="#000000"
		fill-opacity="0.000"
		stroke-opacity="0.5"
		fill-rule="nonzero"
		stroke-width="1.5"
		stroke-linejoin="miter"
		stroke-linecap="square"
		d="M32.11,345.64C28.86,342.78,25.61,339.93,23.97,337.35C22.33,334.77,22.31,332.47,24.34,329.54C26.37,326.62,30.46,323.08,32.75,323.43C35.04,323.77,35.54,328.00,36.18,331.47C36.83,334.95,37.62,337.67,38.76,340.80C39.91,343.92,41.40,347.45,40.35,348.32C39.30,349.20,35.71,347.42,32.11,345.64z"/>
	<path
		fill="#FFFFFF"
		stroke="#000000"
		fill-opacity="0.000"
		stroke-opacity="0.5"
		fill-rule="nonzero"
		stroke-width="1.5"
		stroke-linejoin="miter"
		stroke-linecap="square"
		d="M90.51,240.24C83.32,235.90,76.13,231.57,73.28,231.63C70.43,231.69,71.93,236.15,70.46,246.84C68.98,257.53,64.54,274.45,65.33,277.90C66.12,281.34,72.14,271.32,77.31,264.89C82.47,258.47,86.77,255.64,95.02,255.78C103.27,255.93,115.46,259.04,115.37,256.94C115.27,254.85,102.89,247.54,90.51,240.24z"/>
	<path
		fill="#FFFFFF"
		stroke="#000000"
		fill-opacity="0.000"
		stroke-opacity="0.5"
		fill-rule="nonzero"
		stroke-width="1.5"
		stroke-linejoin="miter"
		stroke-linecap="square"
		d="M84.72,241.61C82.07,241.17,79.43,240.73,77.48,241.62C75.53,242.52,74.28,244.76,72.94,249.13C71.60,253.49,70.16,259.98,71.26,261.24C72.35,262.51,75.96,258.55,78.45,256.31C80.94,254.08,82.31,253.57,85.96,252.65C89.61,251.72,95.55,250.39,95.72,248.49C95.89,246.58,90.30,244.09,84.72,241.61z"/>
	<path
		fill="#FFFFFF"
		stroke="#000000"
		fill-opacity="0.000"
		stroke-opacity="0.5"
		fill-rule="nonzero"
		stroke-width="1.5"
		stroke-linejoin="miter"
		stroke-linecap="square"
		d="M40.68,649.33C26.14,553.88,165.71,495.05,169.25,391.26"/>
	<path
		fill="#FFFFFF"
		stroke="#000000"
		fill-opacity="0.000"
		stroke-opacity="0.5"
		fill-rule="nonzero"
		stroke-width="1.5"
		stroke-linejoin="miter"
		stroke-linecap="square"
		d="M56.47,654.42C34.47,565.86,177.29,506.56,189.06,424.41"/>
	<path
		fill="#FFFFFF"
		stroke="#000000"
		fill-opacity="0.000"
		stroke-opacity="0.5"
		fill-rule="nonzero"
		stroke-width="1.5"
		stroke-linejoin="miter"
		stroke-linecap="square"
		d="M69.98,651.93C43.67,581.90,179.89,522.17,198.40,447.68"/>
	<path
		fill="#FFFFFF"
		stroke="#000000"
		fill-opacity="0.000"
		stroke-opacity="0.5"
		fill-rule="nonzero"
		stroke-width="1.5"
		stroke-linejoin="miter"
		stroke-linecap="square"
		d="M85.09,655.98C58.78,585.95,185.13,536.27,202.64,478.15"/>
	<path
		fill="#FFFFFF"
		stroke="#000000"
		fill-opacity="0.000"
		stroke-opacity="0.5"
		fill-rule="nonzero"
		stroke-width="1.5"
		stroke-linejoin="miter"
		stroke-linecap="square"
		d="M100.45,649.14C76.77,598.46,194.57,542.23,208.41,507.19M61.75,340.71C62.25,342.64,62.75,344.58,65.54,345.03C68.34,345.49,73.43,344.46,74.88,339.99C76.34,335.52,74.16,327.62,78.98,319.57C83.79,311.51,95.61,303.32,97.87,297.14C100.14,290.97,92.85,286.82,85.63,289.20C78.41,291.58,71.25,300.48,66.77,308.24C62.29,316.00,60.50,322.62,60.11,327.84C59.72,333.06,60.73,336.88,61.75,340.71zM63.21,354.40C67.12,359.59,71.03,364.78,74.80,365.03C78.58,365.27,82.22,360.57,82.23,350.97C82.23,341.37,78.60,326.88,85.04,318.02C91.47,309.16,107.98,305.93,112.33,296.34C116.69,286.76,108.89,270.82,97.65,272.15C86.40,273.49,71.71,292.11,63.08,305.52C54.45,318.93,51.89,327.12,52.92,334.40C53.96,341.68,58.59,348.04,63.21,354.40zM178.06,347.71C171.24,343.81,164.42,339.91,160.01,338.56C155.61,337.22,153.64,338.42,146.93,338.25C140.21,338.07,128.77,336.53,125.03,341.98C121.29,347.42,125.26,359.85,127.25,371.89C129.25,383.93,129.26,395.58,131.41,399.41C133.56,403.24,137.84,399.25,140.73,396.53C143.63,393.81,145.14,392.36,150.04,388.34C154.95,384.33,163.23,377.74,171.52,371.16M186.22,339.11C177.37,334.78,168.52,330.45,160.63,328.83C152.73,327.20,145.80,328.28,137.06,328.85C128.32,329.41,117.79,329.45,115.04,337.07C112.29,344.68,117.32,359.86,119.00,376.50C120.67,393.15,118.97,411.25,122.17,416.65C125.36,422.04,133.44,414.74,138.35,409.29C143.26,403.84,144.99,400.24,150.18,395.36C155.38,390.48,164.04,384.32,172.70,378.16M191.62,331.83C183.82,328.31,176.02,324.78,163.30,321.16C150.57,317.53,132.92,313.79,121.07,316.51C109.21,319.24,103.15,328.43,101.66,341.61C100.16,354.80,103.22,371.98,105.26,385.12C107.30,398.27,108.33,407.37,109.07,421.08C109.80,434.78,110.26,453.09,118.17,450.43C126.08,447.78,141.45,424.17,153.39,406.50C165.33,388.83,173.84,377.11,182.35,365.38M168.88,303.35C147.74,301.59,126.60,299.82,112.26,305.19C97.93,310.56,90.39,323.06,88.18,332.17C85.98,341.28,89.09,347.01,92.07,370.34C95.05,393.67,97.89,434.60,92.07,463.28C86.25,491.96,71.78,508.37,62.59,525.15C53.41,541.93,49.53,559.07,60.02,550.62C70.51,542.18,95.37,508.14,112.93,483.92C130.49,459.69,140.77,445.28,151.04,430.87M162.75,583.11C127.80,594.60,103.52,629.52,112.36,659.28"/>
</svg>